<svg width="40" height="41" viewBox="0 0 40 41" fill="none" xmlns="http://www.w3.org/2000/svg">
<rect width="40" height="40.64" rx="20" fill="white"/>
<g clip-path="url(#clip0_229_3430)">
<path fill-rule="evenodd" clip-rule="evenodd" d="M28.934 15.8059C29.073 15.3659 28.934 15.0459 28.318 15.0459H26.273C25.757 15.0459 25.518 15.3259 25.379 15.6259C25.379 15.6259 24.327 18.1879 22.857 19.8499C22.381 20.3299 22.163 20.4899 21.904 20.4899C21.765 20.4899 21.586 20.3299 21.586 19.8899V15.7859C21.586 15.2659 21.428 15.0249 20.991 15.0249H17.773C17.7075 15.0221 17.6421 15.0323 17.5806 15.055C17.519 15.0776 17.4626 15.1123 17.4146 15.157C17.3666 15.2016 17.328 15.2554 17.3009 15.3151C17.2739 15.3748 17.2589 15.4393 17.257 15.5049C17.257 16.0049 17.992 16.1259 18.071 17.5269V20.5719C18.071 21.2319 17.954 21.3529 17.694 21.3529C16.999 21.3529 15.311 18.7709 14.298 15.8279C14.102 15.2449 13.902 15.0249 13.385 15.0249H11.32C10.724 15.0249 10.625 15.3049 10.625 15.6049C10.625 16.1459 11.32 18.8679 13.862 22.4719C15.55 24.9319 17.952 26.2549 20.117 26.2549C21.427 26.2549 21.587 25.9549 21.587 25.4549V23.5929C21.587 22.9929 21.706 22.8929 22.123 22.8929C22.42 22.8929 22.957 23.0519 24.168 24.2329C25.558 25.6339 25.796 26.2749 26.571 26.2749H28.616C29.212 26.2749 29.49 25.9749 29.331 25.3949C29.152 24.8139 28.477 23.9729 27.603 22.9719C27.127 22.4119 26.412 21.7919 26.193 21.4909C25.896 21.0909 25.975 20.9309 26.193 20.5709C26.173 20.5709 28.676 17.0069 28.933 15.8049" fill="black"/>
</g>
<defs>
<clipPath id="clip0_229_3430">
<rect width="20" height="20" fill="white" transform="translate(10 10.6499)"/>
</clipPath>
</defs>
</svg>
