<svg width="40" height="41" viewBox="0 0 40 41" fill="none" xmlns="http://www.w3.org/2000/svg">
<rect width="40" height="40.64" rx="20" fill="white"/>
<g clip-path="url(#clip0_229_3436)">
<path d="M28.3811 16.4369C28.2814 16.067 28.0863 15.7298 27.8153 15.459C27.5444 15.1882 27.207 14.9933 26.8371 14.8939C25.4751 14.5249 20.0001 14.5249 20.0001 14.5249C20.0001 14.5249 14.5251 14.5249 13.1631 14.8939C12.7932 14.9934 12.4559 15.1883 12.1849 15.4591C11.914 15.7299 11.7188 16.0671 11.6191 16.4369C11.3641 17.8269 11.2411 19.2369 11.2501 20.6499C11.2401 22.0629 11.3641 23.4729 11.6191 24.8629C11.7187 25.2328 11.9138 25.57 12.1848 25.8408C12.4558 26.1116 12.7931 26.3065 13.1631 26.4059C14.5251 26.7749 20.0001 26.7749 20.0001 26.7749C20.0001 26.7749 25.4751 26.7749 26.8371 26.4059C27.2071 26.3066 27.5445 26.1117 27.8155 25.8409C28.0864 25.5701 28.2815 25.2328 28.3811 24.8629C28.6361 23.4729 28.7591 22.0629 28.7501 20.6499C28.7591 19.2371 28.6356 17.8266 28.3811 16.4369ZM18.2501 23.2749V18.0249L22.7941 20.6499L18.2501 23.2749Z" fill="black"/>
</g>
<defs>
<clipPath id="clip0_229_3436">
<rect width="20" height="20" fill="white" transform="translate(10 10.6499)"/>
</clipPath>
</defs>
</svg>
